<svg width="152" height="125" viewBox="0 0 152 125" fill="none" xmlns="http://www.w3.org/2000/svg">
<g clip-path="url(#clip0_3903_458)">
<path d="M110.87 120.129C107.656 121.207 104.189 122.111 100.534 122.832C73.7841 128.125 37.017 123.806 16.3693 108.988C10.2057 104.566 5.47874 99.2065 2.88105 92.8885C-6.6556 69.6805 9.70982 65.6169 19.7109 62.6176C34.8582 58.0795 43.5388 56.7132 63.4662 32.8545C86.9595 4.72234 122.103 12.5753 138.64 31.3392C168.653 65.3914 143.154 109.288 110.87 120.129Z" fill="#E9F1F6"/>
<path d="M100.534 122.832C73.7841 128.125 37.017 123.806 16.3694 108.988C16.8476 108.622 17.5029 108.289 18.3491 107.989C24.0522 107.299 27.2521 101.97 33.4767 102.776C41.8542 103.858 41.9565 112.178 41.9565 112.178C41.9565 112.178 42.5076 111.145 45.6287 108.72C47.7817 107.046 49.6807 106.84 50.6529 106.871C51.0819 106.887 51.4794 106.687 51.7451 106.354C52.0324 105.991 52.4673 105.542 53.0125 105.262C53.6265 104.942 54.4412 105.15 55.002 105.377C55.3858 105.528 55.8187 105.485 56.171 105.264C56.5725 105.011 57.2298 104.733 58.2118 104.695C60.0734 104.619 61.4746 105.754 61.4746 105.754C61.4746 105.754 61.3369 101.308 64.275 98.5772C66.239 96.7581 68.8091 97.1188 70.3067 97.5598C70.9463 97.748 71.6174 97.4638 71.946 96.8816C72.1468 96.5287 72.44 96.1386 72.8651 95.776C73.4259 95.2918 74.0163 95.0369 74.4808 94.8997C74.9649 94.7586 75.3624 94.4312 75.5985 93.9921C75.7579 93.7039 76.0138 93.3119 76.4369 92.8042C77.1119 91.9946 77.9246 91.7044 78.515 91.6084C78.9499 91.5378 79.2688 91.1536 79.2648 90.7164C79.2392 86.9233 82.4175 86.3411 82.4175 86.3411L96.5926 52.871L98.0606 53.4885L86.6466 89.4089C87.7073 91.279 86.6938 92.8551 85.9991 93.6255C85.7393 93.9137 85.6587 94.3332 85.8377 94.6782C86.6879 96.3444 85.4402 98.1009 84.8006 98.8399C84.6019 99.0692 84.5369 99.3751 84.5704 99.6769C84.6373 100.234 84.5251 100.814 84.3854 101.275C84.226 101.806 84.413 102.376 84.8557 102.711C85.6429 103.305 86.7489 104.389 86.9792 105.905C87.3472 108.314 85.6272 110.443 85.6272 110.443C85.6272 110.443 89.9055 110.964 91.8695 113.554C93.8374 116.147 93.0129 120.962 93.0129 120.962C96.5178 120.199 98.7042 121.223 100.534 122.832Z" fill="#FFF3D3"/>
<path d="M100.127 31.4608L81.5181 44.0047L93.7056 48.3663L100.127 31.4608Z" fill="#F44D4D"/>
<path d="M109.609 34.8521L115.951 56.3251L103.764 51.9654L109.609 34.8521Z" fill="#F44D4D"/>
<path d="M103.764 51.9654C103.764 51.9654 108.302 45.4396 111.984 35.2265C114.828 27.3422 119.57 9.79362 116.823 0C108.447 5.81423 100.898 22.3591 98.0548 30.2434C94.3727 40.4565 93.7036 48.3663 93.7036 48.3663L103.764 51.9654Z" fill="#F4F4F4"/>
<path d="M116.825 0C113.586 2.24846 110.474 6.10631 107.708 10.4444L117.189 13.8357C117.825 8.73702 117.89 3.78728 116.827 0H116.825Z" fill="#F44D4D"/>
<path d="M113.456 22.9609C114.239 20.7909 113.108 18.3993 110.927 17.6211C108.749 16.8409 106.348 17.9681 105.566 20.1381C104.783 22.3082 105.915 24.6997 108.093 25.4779C110.272 26.2581 112.673 25.131 113.454 22.9609H113.456Z" fill="#03A0C7"/>
<path d="M103.764 51.9654L93.7056 48.3663L87.7309 55.9997L103.496 61.6414L103.764 51.9654Z" fill="#03A0C7"/>
<path d="M91.9364 50.6246L103.685 54.8294" stroke="#03A0C7" stroke-width="0.97" stroke-miterlimit="10" stroke-linecap="round"/>
<path d="M89.6556 53.5414L103.583 58.5245" stroke="#03A0C7" stroke-width="0.97" stroke-miterlimit="10" stroke-linecap="round"/>
<g clip-path="url(#clip1_3903_458)">
<path d="M36.9834 53.8108V57.0464L34.5167 57.7547L34.7621 53.4023L36.9834 53.8108Z" fill="#FFC097"/>
<path d="M37.655 46.5291C37.655 46.5291 39.7084 47.8629 39.6245 50.5114C39.5341 53.1598 37.119 54.7234 34.3746 53.53C31.062 52.0941 32.8249 47.4545 33.9162 46.8737C35.0075 46.293 37.6614 46.5291 37.6614 46.5291H37.655Z" fill="#FFC097"/>
<path d="M34.8654 51.456C34.8654 51.456 36.4345 52.9558 35.5886 55.4C34.7427 57.8442 37.9133 64.392 35.6145 66.1725C33.3157 67.953 25.9349 66.8936 25.5539 62.8667C25.173 58.8462 28.4016 58.0995 28.4339 54.8192C28.4597 51.5454 28.3564 46.5293 32.6828 45.2912C32.6828 45.2912 34.2972 42.3619 36.977 43.115C39.6568 43.868 40.3154 46.6697 38.8496 47.8758C37.3838 49.082 36.0988 48.2587 35.1883 49.867L34.4651 50.5945L34.8525 51.4496L34.8654 51.456Z" fill="#202834"/>
<path d="M35.1947 49.8796C35.1947 49.8796 33.6514 48.9862 33.406 50.0519C33.1607 51.1177 33.8129 51.6474 34.8589 51.4623L35.1947 49.8796Z" fill="#FFC097"/>
<path d="M20.2783 123.532L16.6945 121.209L17.8245 119.505L21.4083 121.828C21.8862 122.135 22.0153 122.766 21.7054 123.239C21.3954 123.711 20.7561 123.839 20.2783 123.532Z" fill="#0F244D"/>
<path d="M38.023 55.2786C38.023 55.2786 46.7598 67.5828 56.3037 73.454L55.2512 75.7515C55.2512 75.7515 48.5291 72.8286 34.6846 63.0964L38.023 55.2786Z" fill="#4282CF"/>
<path d="M56.3037 73.4541C56.3037 73.4541 57.4402 73.0074 58.1247 73.569C58.8092 74.1306 59.1062 75.6303 58.157 76.4982C57.2142 77.3661 55.2447 75.7515 55.2447 75.7515L56.2973 73.4541H56.3037Z" fill="#FFC097"/>
<path d="M57.4079 74.3666C56.8268 74.9793 56.2004 75.86 56.6524 76.4726C57.1109 77.0853 58.0666 77.5958 58.6026 76.8236C59.1385 76.0514 59.8682 74.9282 59.3968 74.4687C58.9254 74.0093 58.002 73.7476 57.4015 74.373L57.4079 74.3666Z" fill="#FFC097"/>
<path d="M35.9954 54.6404C41.4002 54.1809 43.9638 72.05 43.2664 78.6616C43.2664 78.6616 37.3967 80.6719 30.765 79.2934L31.4043 67.7997C31.4043 67.7997 24.8178 76.747 16.6751 82.9502L15.2997 81.125C15.2997 81.125 22.4157 70.6269 25.244 66.3574C27.5751 62.8347 32.4051 54.9404 36.0019 54.634L35.9954 54.6404Z" fill="#66A4ED"/>
<path d="M13.9695 84.2776C13.4271 84.6988 11.9548 85.4135 12.0065 85.7263C12.0517 86.0326 13.5498 85.5029 13.7887 85.0753C14.0276 84.6477 13.9695 84.284 13.9695 84.284V84.2776Z" fill="#FFC097"/>
<path d="M14.415 83.2565C13.9888 83.6203 12.0581 84.552 12.0323 84.8265C12.0064 85.1009 13.9114 84.6797 14.2084 84.2585C14.5054 83.8373 14.415 83.2565 14.415 83.2565Z" fill="#FFC097"/>
<path d="M44.009 125H39.7213V122.958H44.009C44.5772 122.958 45.0421 123.417 45.0421 123.979C45.0421 124.541 44.5772 125 44.009 125Z" fill="#0F244D"/>
<path d="M30.765 79.2934C30.765 79.2934 41.7231 100.283 39.7213 122.958H41.7683C41.7683 122.958 48.7293 97.0221 43.2664 78.6616L30.765 79.2934Z" fill="#0F244D"/>
<path style="mix-blend-mode:overlay" opacity="0.45" d="M45.3456 94.1247C45.2746 88.8533 44.6999 83.4989 43.2664 78.6679L30.765 79.2997C30.765 79.2997 35.4595 88.2981 38.1457 100.87C39.7665 99.6641 42.795 97.2199 45.3521 94.1247H45.3456Z" fill="url(#paint0_linear_3903_458)"/>
<path d="M14.7831 82.6311C14.428 82.88 12.6199 83.633 12.5941 83.9075C12.5682 84.1819 13.1881 84.1755 13.8339 83.9521C14.4796 83.7352 14.7831 82.6311 14.7831 82.6311Z" fill="#FFC097"/>
<path d="M16.6751 82.9565L15.2997 81.1313C15.1705 81.3037 15.0608 81.4632 14.9897 81.5845C14.1051 83.065 13.8662 84.2712 13.5433 85.0562C13.214 85.8411 12.1614 86.4091 12.3035 86.5687C12.4455 86.7282 13.9243 86.575 15.5321 84.2138C15.8227 83.7926 16.2166 83.3714 16.6816 82.9629L16.6751 82.9565Z" fill="#FFC097"/>
<path d="M30.765 79.2934C30.0353 88.9172 23.6232 109.416 17.8245 119.499L19.6519 120.68C19.6519 120.68 40.1927 97.622 43.2728 78.6616L30.7714 79.2934H30.765Z" fill="#233862"/>
</g>
</g>
<defs>
<linearGradient id="paint0_linear_3903_458" x1="33.632" y1="77.6596" x2="44.7278" y2="97.1095" gradientUnits="userSpaceOnUse">
<stop/>
<stop offset="0.9" stop-opacity="0"/>
</linearGradient>
<clipPath id="clip0_3903_458">
<rect width="152" height="125" fill="white"/>
</clipPath>
<clipPath id="clip1_3903_458">
<rect width="51" height="82" fill="white" transform="translate(12 43)"/>
</clipPath>
</defs>
</svg>
