<svg width="152" height="125" viewBox="0 0 152 125" fill="none" xmlns="http://www.w3.org/2000/svg">
<g clip-path="url(#clip0_3910_212)">
<path d="M33.2798 20.4153C32.819 18.6124 32.8122 16.8028 33.2798 15C33.7475 16.7961 33.7407 18.6124 33.2798 20.4153Z" fill="#B9D2E1"/>
<path d="M27.7697 22.008C26.4684 20.6795 25.5602 19.1139 25.0654 17.3179C26.3667 18.6395 27.2749 20.2187 27.7697 22.008Z" fill="#B9D2E1"/>
<path d="M23.7912 26.1422C22.0019 25.6475 20.4295 24.7393 19.1011 23.438C20.8904 23.9328 22.4628 24.8409 23.7912 26.1422Z" fill="#B9D2E1"/>
<path d="M22.4153 31.7203C20.6192 32.1811 18.8028 32.1879 17 31.7203C18.7961 31.2526 20.6124 31.2594 22.4153 31.7203Z" fill="#B9D2E1"/>
<path d="M24.008 37.2305C22.6795 38.5318 21.1139 39.44 19.3179 39.9347C20.6395 38.6334 22.2187 37.7252 24.008 37.2305Z" fill="#B9D2E1"/>
<path d="M28.1422 41.209C27.6475 42.9983 26.7393 44.5707 25.438 45.8991C25.9328 44.1098 26.8409 42.5374 28.1422 41.209Z" fill="#B9D2E1"/>
<path d="M33.7134 42.5847C34.1743 44.3876 34.1811 46.1972 33.7134 48C33.2458 46.2039 33.2526 44.3876 33.7134 42.5847Z" fill="#B9D2E1"/>
<path d="M39.2305 40.9851C40.5318 42.3135 41.44 43.8791 41.9347 45.6752C40.6334 44.3536 39.7252 42.7744 39.2305 40.9851Z" fill="#B9D2E1"/>
<path d="M43.209 36.8508C44.9983 37.3456 46.5707 38.2538 47.8991 39.5551C46.1098 39.0603 44.5374 38.1521 43.209 36.8508Z" fill="#B9D2E1"/>
<path d="M44.5847 31.2798C46.3876 30.819 48.1972 30.8122 50 31.2798C48.2039 31.7475 46.3876 31.7407 44.5847 31.2798Z" fill="#B9D2E1"/>
<path d="M42.9851 25.7697C44.3135 24.4684 45.8791 23.5602 47.6752 23.0654C46.3536 24.3667 44.7744 25.2749 42.9851 25.7697Z" fill="#B9D2E1"/>
<path d="M38.8508 21.7912C39.3456 20.0019 40.2538 18.4295 41.5551 17.1011C41.0603 18.8904 40.1521 20.4628 38.8508 21.7912Z" fill="#B9D2E1"/>
<path d="M110.87 120.129C107.656 121.207 104.189 122.11 100.534 122.832C73.7841 128.125 37.017 123.806 16.3693 108.988C10.2057 104.566 5.47874 99.2064 2.88105 92.8884C-6.6556 69.6805 9.70982 65.6168 19.7109 62.6175C34.8582 58.0795 43.5388 56.7132 63.4662 32.8544C86.9595 4.72228 122.103 12.5752 138.64 31.3391C168.653 65.3914 143.154 109.288 110.87 120.129Z" fill="#E9F1F6"/>
<path d="M119.228 51.0615H34.2278V106.062H119.228V51.0615Z" fill="#FFC727"/>
<path d="M64.4903 45.0615H34.2278V51.0615H66.2278L64.4903 45.0615Z" fill="#FFC727"/>
<g opacity="0.1">
<path d="M119 51H34V106H119V51Z" fill="black"/>
<path d="M64.319 45.0615H34.4238V50.3314H66.0353L64.319 45.0615Z" fill="black"/>
</g>
<path d="M78.5922 72.3566L39.932 80.3002L29.7329 30.6731L58.4398 24.7769L70.3381 32.1847L78.5922 72.3566Z" fill="#FFC727"/>
<path opacity="0.8" d="M78.5922 72.3566L39.932 80.3002L29.7329 30.6731L58.4398 24.7769L70.3381 32.1847L78.5922 72.3566Z" fill="white"/>
<path d="M58.4397 24.7769L70.338 32.1847L60.3812 34.2321L58.4397 24.7769Z" fill="#FFC727"/>
<path d="M35.4795 39.4987L56.9744 35.0825L56.7127 33.8091L35.2178 38.2252L35.4795 39.4987Z" fill="#DBDBDB"/>
<path d="M36.1423 42.7135L57.6372 38.2974L57.3756 37.0239L35.8807 41.4401L36.1423 42.7135Z" fill="#DBDBDB"/>
<path d="M36.8015 45.9291L58.2964 41.5129L58.0348 40.2395L36.5398 44.6557L36.8015 45.9291Z" fill="#DBDBDB"/>
<path d="M37.465 49.1495L68.957 42.6794L68.6954 41.406L37.2034 47.8761L37.465 49.1495Z" fill="#DBDBDB"/>
<path d="M38.1242 52.3615L69.6162 45.8914L69.3546 44.6179L37.8626 51.088L38.1242 52.3615Z" fill="#DBDBDB"/>
<path d="M38.7844 55.5805L70.2764 49.1104L70.0147 47.8369L38.5227 54.307L38.7844 55.5805Z" fill="#DBDBDB"/>
<path d="M39.447 58.7951L70.939 52.325L70.6773 51.0515L39.1853 57.5216L39.447 58.7951Z" fill="#DBDBDB"/>
<path d="M40.1059 62.0104L71.5979 55.5403L71.3363 54.2668L39.8443 60.7369L40.1059 62.0104Z" fill="#DBDBDB"/>
<path d="M40.7692 65.2294L72.2612 58.7593L71.9996 57.4858L40.5076 63.9559L40.7692 65.2294Z" fill="#DBDBDB"/>
<path d="M41.4318 68.4442L72.9238 61.9741L72.6622 60.7007L41.1702 67.1708L41.4318 68.4442Z" fill="#DBDBDB"/>
<path d="M42.091 71.6598L73.583 65.1897L73.3214 63.9162L41.8294 70.3863L42.091 71.6598Z" fill="#DBDBDB"/>
<path d="M42.7512 74.8783L74.2432 68.4082L73.9815 67.1348L42.4895 73.6049L42.7512 74.8783Z" fill="#DBDBDB"/>
<path d="M80.0931 23.2032L68.2485 72.4636L106.62 81.6901L118.465 32.4297L80.0931 23.2032Z" fill="white"/>
<path d="M106.62 81.6899C96.9943 79.4071 77.7359 74.8518 68.1169 72.5418C68.0657 72.5042 79.9572 23.2252 79.9265 23.1638L79.964 23L80.1278 23.0409L118.491 32.3051L118.617 32.3358L118.587 32.462C115.615 44.7357 109.626 69.4298 106.617 81.6899H106.62ZM106.62 81.6899C109.514 69.3957 115.407 44.6777 118.341 32.4006C119.044 32.892 79.9094 23.2457 80.0527 23.3651L80.2541 23.2423C80.2234 23.2081 68.3933 72.9683 68.2738 72.3575C77.8382 74.6573 97.066 79.3559 106.62 81.6899Z" fill="#DBDBDB"/>
<path d="M81.7585 34.7417L96.7552 38.3074L111.735 41.9517L96.7381 38.3859L81.7585 34.7417Z" fill="#C7C7C7"/>
<path d="M81.4617 35.9666L96.4617 39.5323L111.441 43.1731L96.4447 39.6074L81.4617 35.9666Z" fill="#C7C7C7"/>
<path d="M81.1685 37.188L96.1685 40.7537L111.148 44.3946L96.148 40.8288L81.1685 37.188Z" fill="#C7C7C7"/>
<path d="M80.8748 38.4097L95.8748 41.9754L110.854 45.6197L95.8543 42.0505L80.8748 38.4097Z" fill="#C7C7C7"/>
<path d="M80.5813 39.6313L95.5779 43.1971L110.561 46.8413L95.5609 43.2756L80.5813 39.6313Z" fill="#C7C7C7"/>
<path d="M80.2881 40.8564L95.2847 44.4222L110.264 48.063L95.2677 44.4973L80.2881 40.8564Z" fill="#C7C7C7"/>
<path d="M79.9944 42.0776L94.991 45.6434L109.971 49.2842L94.974 45.7185L79.9944 42.0776Z" fill="#C7C7C7"/>
<path d="M79.7012 43.2993L94.6978 46.8651L109.677 50.5093L94.6807 46.9401L79.7012 43.2993Z" fill="#C7C7C7"/>
<path d="M79.4041 44.521L94.4041 48.0867L109.384 51.731L94.387 48.1652L79.4041 44.521Z" fill="#C7C7C7"/>
<path d="M79.1108 45.7458L94.1109 49.3116L109.09 52.9524L94.0904 49.3867L79.1108 45.7458Z" fill="#C7C7C7"/>
<path d="M78.8174 46.9675L93.8174 50.5333L108.797 54.1741L93.7969 50.6083L78.8174 46.9675Z" fill="#C7C7C7"/>
<path d="M78.5237 48.189L93.5203 51.7547L108.503 55.399L93.5032 51.8298L78.5237 48.189Z" fill="#C7C7C7"/>
<path d="M78.2305 49.4106L93.2271 52.9764L108.207 56.6206L93.21 53.0549L78.2305 49.4106Z" fill="#C7C7C7"/>
<path d="M77.9373 50.6355L92.9339 54.2012L107.913 57.8421L92.9168 54.2763L77.9373 50.6355Z" fill="#C7C7C7"/>
<path d="M77.6436 51.8572L92.6402 55.4229L107.62 59.0637L92.6231 55.498L77.6436 51.8572Z" fill="#C7C7C7"/>
<path d="M83.975 49.459L81.7024 48.9126L80.4691 54.0417L82.7417 54.5881L83.975 49.459Z" fill="#FFE391"/>
<path d="M88.8502 47.7391L86.5776 47.1926L84.6862 55.0588L86.9588 55.6052L88.8502 47.7391Z" fill="#FFE391"/>
<path d="M93.8055 45.6856L91.533 45.1392L88.9045 56.0708L91.1771 56.6172L93.8055 45.6856Z" fill="#FFE391"/>
<path d="M98.3388 45.3863L96.0662 44.8398L93.1218 57.0853L95.3944 57.6317L98.3388 45.3863Z" fill="#FFE391"/>
<path d="M103.118 44.0562L100.846 43.5098L97.3373 58.1008L99.6099 58.6472L103.118 44.0562Z" fill="#FFE391"/>
<path d="M107.892 42.753L105.62 42.2065L101.554 59.1133L103.827 59.6597L107.892 42.753Z" fill="#FFE391"/>
<path d="M82.7753 34.0796L81.6697 38.942L80.5437 43.801C79.793 47.0391 79.0253 50.2739 78.2541 53.5087L78.1483 53.3346L85.4402 55.0817L92.7287 56.8526L100.01 58.6509L107.282 60.4866L99.9694 58.8181L92.6673 57.112L85.372 55.3751L78.0835 53.6144L77.9436 53.5803L77.9777 53.4404C78.7591 50.2091 79.5473 46.9777 80.3492 43.7532L81.5571 38.9147L82.7821 34.0796H82.7753Z" fill="#C7C7C7"/>
<path d="M82.4928 55.6165L80.2202 55.0701L80.1708 55.2758L82.4433 55.8222L82.4928 55.6165Z" fill="#C7C7C7"/>
<path d="M86.7113 56.6292L84.4387 56.0828L84.3893 56.2885L86.6619 56.8349L86.7113 56.6292Z" fill="#C7C7C7"/>
<path d="M90.9298 57.6453L88.6572 57.0989L88.6078 57.3046L90.8804 57.851L90.9298 57.6453Z" fill="#C7C7C7"/>
<path d="M95.1483 58.6575L92.8757 58.1111L92.8263 58.3168L95.0989 58.8632L95.1483 58.6575Z" fill="#C7C7C7"/>
<path d="M99.3637 59.6702L97.0911 59.1238L97.0416 59.3295L99.3142 59.8759L99.3637 59.6702Z" fill="#C7C7C7"/>
<path d="M103.582 60.6858L101.31 60.1394L101.26 60.3451L103.533 60.8915L103.582 60.6858Z" fill="#C7C7C7"/>
<path d="M81.8027 49.6222C82.9185 49.8747 84.048 50.0521 85.1842 50.1682C86.3171 50.291 87.4568 50.3592 88.5964 50.3661C90.8724 50.3729 93.1551 50.1886 95.3697 49.6666C97.5876 49.1786 99.7407 48.3802 101.72 47.2644L102.095 47.0596L102.457 46.8344L103.18 46.3806C103.641 46.0462 104.122 45.7391 104.555 45.3672C105.466 44.6779 106.278 43.8726 107.08 43.0571L107.097 43.0708C105.61 44.8076 103.849 46.3363 101.856 47.4896C100.874 48.0901 99.8158 48.561 98.7477 48.9841C97.6763 49.4072 96.5673 49.7314 95.4481 49.9873C93.1995 50.4889 90.8894 50.68 88.5964 50.6152C86.3034 50.5401 84.0104 50.2466 81.8061 49.6188L81.8027 49.6222Z" fill="#263238"/>
<path d="M107.343 44.7972H107.009L106.995 43.1525L105.357 43.289L105.33 42.9546L107.326 42.7942L107.343 44.7972Z" fill="#263238"/>
<path d="M74.5212 62.0176L105.78 69.5337L106.084 68.2697L74.8251 60.7535L74.5212 62.0176Z" fill="#DBDBDB"/>
<path d="M73.7515 65.2127L91.3516 69.4446L91.6555 68.1806L74.0554 63.9486L73.7515 65.2127Z" fill="#DBDBDB"/>
<path d="M88.8621 32.4119L106.462 36.6438L106.766 35.3798L89.166 31.1479L88.8621 32.4119Z" fill="#DBDBDB"/>
<path d="M118.809 106H34.2013L27.6753 55.0032H112.283L118.809 106Z" fill="#FFC727"/>
<g clip-path="url(#clip1_3910_212)">
<path d="M72.4984 64C63.3866 64 56 71.3866 56 80.4984C56 89.6103 63.3866 96.9969 72.4984 96.9969C81.6103 96.9969 88.9969 89.6103 88.9969 80.4984C88.9969 71.3866 81.6134 64 72.4984 64ZM72.4984 90.7375L64.0848 82.3239H67.8329V74.0105H77.1671V82.3239H80.9152L72.5016 90.7375H72.4984Z" fill="white"/>
</g>
<path d="M56.8951 49.7205H27L27.6752 55.0032H59.2867L56.8951 49.7205Z" fill="#FFC727"/>
</g>
<defs>
<clipPath id="clip0_3910_212">
<rect width="152" height="125" fill="white"/>
</clipPath>
<clipPath id="clip1_3910_212">
<rect width="33" height="33" fill="white" transform="translate(56 64)"/>
</clipPath>
</defs>
</svg>
